<mxfile host="Electron" agent="Mozilla/5.0 (X11; Linux x86_64) AppleWebKit/537.36 (KHTML, like Gecko) draw.io/26.2.2 Chrome/134.0.6998.178 Electron/35.1.2 Safari/537.36" version="26.2.2">
  <diagram name="Page-1" id="FUQ8i1S0Vrw2rS4HWKQ2">
    <mxGraphModel dx="2034" dy="765" grid="1" gridSize="10" guides="1" tooltips="1" connect="1" arrows="1" fold="1" page="1" pageScale="1" pageWidth="850" pageHeight="1100" math="0" shadow="0">
      <root>
        <mxCell id="0" />
        <mxCell id="1" parent="0" />
        <mxCell id="6m3Nq85Ehm2Q4fzWnM5_-9" value="POWER CONNECT" style="edgeStyle=orthogonalEdgeStyle;rounded=0;orthogonalLoop=1;jettySize=auto;html=1;exitX=1;exitY=0;exitDx=0;exitDy=0;entryX=0;entryY=0;entryDx=0;entryDy=0;" edge="1" parent="1" source="6m3Nq85Ehm2Q4fzWnM5_-1" target="6m3Nq85Ehm2Q4fzWnM5_-2">
          <mxGeometry relative="1" as="geometry">
            <Array as="points">
              <mxPoint x="190" y="370" />
              <mxPoint x="190" y="370" />
            </Array>
          </mxGeometry>
        </mxCell>
        <mxCell id="6m3Nq85Ehm2Q4fzWnM5_-1" value="OFF" style="rounded=0;whiteSpace=wrap;html=1;" vertex="1" parent="1">
          <mxGeometry x="-40" y="370" width="120" height="60" as="geometry" />
        </mxCell>
        <mxCell id="6m3Nq85Ehm2Q4fzWnM5_-10" value="POWER DISCONNECT" style="edgeStyle=orthogonalEdgeStyle;rounded=0;orthogonalLoop=1;jettySize=auto;html=1;exitX=0;exitY=1;exitDx=0;exitDy=0;entryX=1;entryY=1;entryDx=0;entryDy=0;" edge="1" parent="1" source="6m3Nq85Ehm2Q4fzWnM5_-2" target="6m3Nq85Ehm2Q4fzWnM5_-1">
          <mxGeometry relative="1" as="geometry">
            <Array as="points">
              <mxPoint x="170" y="430" />
              <mxPoint x="170" y="430" />
            </Array>
          </mxGeometry>
        </mxCell>
        <mxCell id="6m3Nq85Ehm2Q4fzWnM5_-17" value="LIMITS UNSET" style="edgeStyle=orthogonalEdgeStyle;rounded=0;orthogonalLoop=1;jettySize=auto;html=1;entryX=0;entryY=0.5;entryDx=0;entryDy=0;" edge="1" parent="1" source="6m3Nq85Ehm2Q4fzWnM5_-2" target="6m3Nq85Ehm2Q4fzWnM5_-3">
          <mxGeometry relative="1" as="geometry" />
        </mxCell>
        <mxCell id="6m3Nq85Ehm2Q4fzWnM5_-27" value="LIMITS&lt;div&gt;SET&lt;/div&gt;" style="edgeStyle=orthogonalEdgeStyle;rounded=0;orthogonalLoop=1;jettySize=auto;html=1;" edge="1" parent="1" source="6m3Nq85Ehm2Q4fzWnM5_-2" target="6m3Nq85Ehm2Q4fzWnM5_-5">
          <mxGeometry relative="1" as="geometry" />
        </mxCell>
        <mxCell id="6m3Nq85Ehm2Q4fzWnM5_-2" value="ON" style="rounded=0;whiteSpace=wrap;html=1;" vertex="1" parent="1">
          <mxGeometry x="250" y="370" width="120" height="60" as="geometry" />
        </mxCell>
        <mxCell id="6m3Nq85Ehm2Q4fzWnM5_-21" value="LIMITS SET" style="edgeStyle=orthogonalEdgeStyle;rounded=0;orthogonalLoop=1;jettySize=auto;html=1;entryX=0.75;entryY=0;entryDx=0;entryDy=0;" edge="1" parent="1" source="6m3Nq85Ehm2Q4fzWnM5_-3" target="6m3Nq85Ehm2Q4fzWnM5_-5">
          <mxGeometry relative="1" as="geometry">
            <Array as="points">
              <mxPoint x="610" y="460" />
              <mxPoint x="340" y="460" />
            </Array>
          </mxGeometry>
        </mxCell>
        <mxCell id="6m3Nq85Ehm2Q4fzWnM5_-22" value="LIMITS NOT FOUND" style="edgeStyle=orthogonalEdgeStyle;rounded=0;orthogonalLoop=1;jettySize=auto;html=1;entryX=1;entryY=0.5;entryDx=0;entryDy=0;" edge="1" parent="1" source="6m3Nq85Ehm2Q4fzWnM5_-3" target="6m3Nq85Ehm2Q4fzWnM5_-4">
          <mxGeometry relative="1" as="geometry">
            <Array as="points">
              <mxPoint x="720" y="400" />
              <mxPoint x="720" y="270" />
            </Array>
          </mxGeometry>
        </mxCell>
        <mxCell id="6m3Nq85Ehm2Q4fzWnM5_-3" value="CALIBRATE" style="rounded=0;whiteSpace=wrap;html=1;" vertex="1" parent="1">
          <mxGeometry x="550" y="370" width="120" height="60" as="geometry" />
        </mxCell>
        <mxCell id="6m3Nq85Ehm2Q4fzWnM5_-26" value="POWER DISCONNECT" style="edgeStyle=orthogonalEdgeStyle;rounded=0;orthogonalLoop=1;jettySize=auto;html=1;entryX=0;entryY=0.5;entryDx=0;entryDy=0;" edge="1" parent="1" source="6m3Nq85Ehm2Q4fzWnM5_-4" target="6m3Nq85Ehm2Q4fzWnM5_-1">
          <mxGeometry relative="1" as="geometry" />
        </mxCell>
        <mxCell id="6m3Nq85Ehm2Q4fzWnM5_-4" value="ERROR" style="rounded=0;whiteSpace=wrap;html=1;" vertex="1" parent="1">
          <mxGeometry x="320" y="240" width="120" height="60" as="geometry" />
        </mxCell>
        <mxCell id="6m3Nq85Ehm2Q4fzWnM5_-32" value="NEW CONFIG" style="edgeStyle=orthogonalEdgeStyle;rounded=0;orthogonalLoop=1;jettySize=auto;html=1;exitX=0;exitY=0.75;exitDx=0;exitDy=0;entryX=0;entryY=0.5;entryDx=0;entryDy=0;" edge="1" parent="1" source="6m3Nq85Ehm2Q4fzWnM5_-5" target="6m3Nq85Ehm2Q4fzWnM5_-7">
          <mxGeometry relative="1" as="geometry" />
        </mxCell>
        <mxCell id="6m3Nq85Ehm2Q4fzWnM5_-36" value="!CLOSED &amp;amp;&amp;amp; CLOSE CMD" style="edgeStyle=orthogonalEdgeStyle;rounded=0;orthogonalLoop=1;jettySize=auto;html=1;exitX=0;exitY=0.25;exitDx=0;exitDy=0;entryX=1;entryY=0.25;entryDx=0;entryDy=0;" edge="1" parent="1" source="6m3Nq85Ehm2Q4fzWnM5_-5" target="6m3Nq85Ehm2Q4fzWnM5_-8">
          <mxGeometry relative="1" as="geometry" />
        </mxCell>
        <mxCell id="6m3Nq85Ehm2Q4fzWnM5_-45" value="!OPEN &amp;amp;&amp;amp; OPEN CMD" style="edgeStyle=orthogonalEdgeStyle;rounded=0;orthogonalLoop=1;jettySize=auto;html=1;exitX=1;exitY=0;exitDx=0;exitDy=0;entryX=0;entryY=0.25;entryDx=0;entryDy=0;" edge="1" parent="1" source="6m3Nq85Ehm2Q4fzWnM5_-5" target="6m3Nq85Ehm2Q4fzWnM5_-6">
          <mxGeometry relative="1" as="geometry">
            <Array as="points">
              <mxPoint x="370" y="545" />
            </Array>
          </mxGeometry>
        </mxCell>
        <mxCell id="6m3Nq85Ehm2Q4fzWnM5_-5" value="READY" style="rounded=0;whiteSpace=wrap;html=1;" vertex="1" parent="1">
          <mxGeometry x="250" y="540" width="120" height="60" as="geometry" />
        </mxCell>
        <mxCell id="6m3Nq85Ehm2Q4fzWnM5_-49" value="LIMIT HIT" style="edgeStyle=orthogonalEdgeStyle;rounded=0;orthogonalLoop=1;jettySize=auto;html=1;entryX=1;entryY=0.5;entryDx=0;entryDy=0;" edge="1" parent="1" source="6m3Nq85Ehm2Q4fzWnM5_-6" target="6m3Nq85Ehm2Q4fzWnM5_-5">
          <mxGeometry relative="1" as="geometry">
            <Array as="points">
              <mxPoint x="500" y="570" />
              <mxPoint x="500" y="570" />
            </Array>
          </mxGeometry>
        </mxCell>
        <mxCell id="6m3Nq85Ehm2Q4fzWnM5_-6" value="OPEN" style="rounded=0;whiteSpace=wrap;html=1;" vertex="1" parent="1">
          <mxGeometry x="550" y="530" width="120" height="60" as="geometry" />
        </mxCell>
        <mxCell id="6m3Nq85Ehm2Q4fzWnM5_-33" value="CONFIG&lt;div&gt;SUCCESS&lt;/div&gt;" style="edgeStyle=orthogonalEdgeStyle;rounded=0;orthogonalLoop=1;jettySize=auto;html=1;entryX=1;entryY=0.75;entryDx=0;entryDy=0;exitX=1;exitY=0.5;exitDx=0;exitDy=0;" edge="1" parent="1" source="6m3Nq85Ehm2Q4fzWnM5_-7" target="6m3Nq85Ehm2Q4fzWnM5_-5">
          <mxGeometry relative="1" as="geometry" />
        </mxCell>
        <mxCell id="6m3Nq85Ehm2Q4fzWnM5_-34" value="CONFIG&lt;div&gt;ERROR&lt;/div&gt;" style="edgeStyle=orthogonalEdgeStyle;rounded=0;orthogonalLoop=1;jettySize=auto;html=1;exitX=1;exitY=0.75;exitDx=0;exitDy=0;entryX=1;entryY=0.25;entryDx=0;entryDy=0;" edge="1" parent="1" source="6m3Nq85Ehm2Q4fzWnM5_-7" target="6m3Nq85Ehm2Q4fzWnM5_-4">
          <mxGeometry relative="1" as="geometry">
            <mxPoint x="750" y="300" as="targetPoint" />
            <Array as="points">
              <mxPoint x="740" y="785" />
              <mxPoint x="740" y="255" />
            </Array>
          </mxGeometry>
        </mxCell>
        <mxCell id="6m3Nq85Ehm2Q4fzWnM5_-7" value="CONFIGURE&lt;div&gt;&lt;br&gt;&lt;/div&gt;&lt;div&gt;speed, acceleration, deceleration&lt;/div&gt;" style="rounded=0;whiteSpace=wrap;html=1;" vertex="1" parent="1">
          <mxGeometry x="250" y="740" width="120" height="60" as="geometry" />
        </mxCell>
        <mxCell id="6m3Nq85Ehm2Q4fzWnM5_-37" value="LIMIT HIT" style="edgeStyle=orthogonalEdgeStyle;rounded=0;orthogonalLoop=1;jettySize=auto;html=1;entryX=0;entryY=0.5;entryDx=0;entryDy=0;" edge="1" parent="1" source="6m3Nq85Ehm2Q4fzWnM5_-8" target="6m3Nq85Ehm2Q4fzWnM5_-5">
          <mxGeometry relative="1" as="geometry" />
        </mxCell>
        <mxCell id="6m3Nq85Ehm2Q4fzWnM5_-8" value="CLOSE" style="rounded=0;whiteSpace=wrap;html=1;" vertex="1" parent="1">
          <mxGeometry x="-40" y="540" width="120" height="60" as="geometry" />
        </mxCell>
        <mxCell id="6m3Nq85Ehm2Q4fzWnM5_-11" value="" style="ellipse;whiteSpace=wrap;html=1;aspect=fixed;" vertex="1" parent="1">
          <mxGeometry x="-30" y="340" width="20" height="20" as="geometry" />
        </mxCell>
        <mxCell id="6m3Nq85Ehm2Q4fzWnM5_-12" value="" style="ellipse;whiteSpace=wrap;html=1;aspect=fixed;" vertex="1" parent="1">
          <mxGeometry x="6" y="340" width="20" height="20" as="geometry" />
        </mxCell>
        <mxCell id="6m3Nq85Ehm2Q4fzWnM5_-13" value="" style="ellipse;whiteSpace=wrap;html=1;aspect=fixed;" vertex="1" parent="1">
          <mxGeometry x="42" y="340" width="20" height="20" as="geometry" />
        </mxCell>
        <mxCell id="6m3Nq85Ehm2Q4fzWnM5_-14" value="" style="ellipse;whiteSpace=wrap;html=1;aspect=fixed;" vertex="1" parent="1">
          <mxGeometry x="264" y="340" width="20" height="20" as="geometry" />
        </mxCell>
        <mxCell id="6m3Nq85Ehm2Q4fzWnM5_-15" value="" style="ellipse;whiteSpace=wrap;html=1;aspect=fixed;" vertex="1" parent="1">
          <mxGeometry x="300" y="340" width="20" height="20" as="geometry" />
        </mxCell>
        <mxCell id="6m3Nq85Ehm2Q4fzWnM5_-16" value="" style="ellipse;whiteSpace=wrap;html=1;aspect=fixed;fillColor=#FFFFFF;strokeColor=default;" vertex="1" parent="1">
          <mxGeometry x="336" y="340" width="20" height="20" as="geometry" />
        </mxCell>
        <mxCell id="6m3Nq85Ehm2Q4fzWnM5_-18" value="" style="ellipse;whiteSpace=wrap;html=1;aspect=fixed;" vertex="1" parent="1">
          <mxGeometry x="564" y="340" width="20" height="20" as="geometry" />
        </mxCell>
        <mxCell id="6m3Nq85Ehm2Q4fzWnM5_-19" value="" style="ellipse;whiteSpace=wrap;html=1;aspect=fixed;fillColor=#FFFFFF;" vertex="1" parent="1">
          <mxGeometry x="600" y="340" width="20" height="20" as="geometry" />
        </mxCell>
        <mxCell id="6m3Nq85Ehm2Q4fzWnM5_-20" value="" style="ellipse;whiteSpace=wrap;html=1;aspect=fixed;fillColor=#000000;strokeColor=default;" vertex="1" parent="1">
          <mxGeometry x="636" y="340" width="20" height="20" as="geometry" />
        </mxCell>
        <mxCell id="6m3Nq85Ehm2Q4fzWnM5_-23" value="" style="ellipse;whiteSpace=wrap;html=1;aspect=fixed;fillColor=#FFFFFF;" vertex="1" parent="1">
          <mxGeometry x="334" y="210" width="20" height="20" as="geometry" />
        </mxCell>
        <mxCell id="6m3Nq85Ehm2Q4fzWnM5_-24" value="" style="ellipse;whiteSpace=wrap;html=1;aspect=fixed;fillColor=#FFFFFF;" vertex="1" parent="1">
          <mxGeometry x="370" y="210" width="20" height="20" as="geometry" />
        </mxCell>
        <mxCell id="6m3Nq85Ehm2Q4fzWnM5_-25" value="" style="ellipse;whiteSpace=wrap;html=1;aspect=fixed;fillColor=#FFFFFF;strokeColor=default;" vertex="1" parent="1">
          <mxGeometry x="406" y="210" width="20" height="20" as="geometry" />
        </mxCell>
        <mxCell id="6m3Nq85Ehm2Q4fzWnM5_-28" value="RESET&lt;div&gt;BUTTON&lt;/div&gt;" style="edgeStyle=orthogonalEdgeStyle;rounded=0;orthogonalLoop=1;jettySize=auto;html=1;exitX=0.1;exitY=0.017;exitDx=0;exitDy=0;entryX=0.1;entryY=1;entryDx=0;entryDy=0;entryPerimeter=0;exitPerimeter=0;" edge="1" parent="1" source="6m3Nq85Ehm2Q4fzWnM5_-5" target="6m3Nq85Ehm2Q4fzWnM5_-2">
          <mxGeometry relative="1" as="geometry" />
        </mxCell>
        <mxCell id="6m3Nq85Ehm2Q4fzWnM5_-29" value="" style="ellipse;whiteSpace=wrap;html=1;aspect=fixed;fillColor=#000000;" vertex="1" parent="1">
          <mxGeometry x="264" y="610" width="20" height="20" as="geometry" />
        </mxCell>
        <mxCell id="6m3Nq85Ehm2Q4fzWnM5_-30" value="" style="ellipse;whiteSpace=wrap;html=1;aspect=fixed;fillColor=#FFFFFF;" vertex="1" parent="1">
          <mxGeometry x="300" y="610" width="20" height="20" as="geometry" />
        </mxCell>
        <mxCell id="6m3Nq85Ehm2Q4fzWnM5_-31" value="" style="ellipse;whiteSpace=wrap;html=1;aspect=fixed;fillColor=#FFFFFF;strokeColor=default;" vertex="1" parent="1">
          <mxGeometry x="336" y="610" width="20" height="20" as="geometry" />
        </mxCell>
        <mxCell id="6m3Nq85Ehm2Q4fzWnM5_-38" value="LIMIT NOT HIT" style="edgeStyle=orthogonalEdgeStyle;rounded=0;orthogonalLoop=1;jettySize=auto;html=1;entryX=0;entryY=0.25;entryDx=0;entryDy=0;exitX=0;exitY=0.75;exitDx=0;exitDy=0;" edge="1" parent="1" source="6m3Nq85Ehm2Q4fzWnM5_-8" target="6m3Nq85Ehm2Q4fzWnM5_-8">
          <mxGeometry relative="1" as="geometry">
            <Array as="points">
              <mxPoint x="-100" y="585" />
              <mxPoint x="-100" y="555" />
            </Array>
          </mxGeometry>
        </mxCell>
        <mxCell id="6m3Nq85Ehm2Q4fzWnM5_-39" value="" style="ellipse;whiteSpace=wrap;html=1;aspect=fixed;fillColor=#FFFFFF;" vertex="1" parent="1">
          <mxGeometry x="-26" y="510" width="20" height="20" as="geometry" />
        </mxCell>
        <mxCell id="6m3Nq85Ehm2Q4fzWnM5_-40" value="" style="ellipse;whiteSpace=wrap;html=1;aspect=fixed;fillColor=#000000;" vertex="1" parent="1">
          <mxGeometry x="10" y="510" width="20" height="20" as="geometry" />
        </mxCell>
        <mxCell id="6m3Nq85Ehm2Q4fzWnM5_-41" value="" style="ellipse;whiteSpace=wrap;html=1;aspect=fixed;fillColor=#FFFFFF;strokeColor=default;" vertex="1" parent="1">
          <mxGeometry x="46" y="510" width="20" height="20" as="geometry" />
        </mxCell>
        <mxCell id="6m3Nq85Ehm2Q4fzWnM5_-42" value="" style="ellipse;whiteSpace=wrap;html=1;aspect=fixed;fillColor=#FFFFFF;" vertex="1" parent="1">
          <mxGeometry x="564" y="500" width="20" height="20" as="geometry" />
        </mxCell>
        <mxCell id="6m3Nq85Ehm2Q4fzWnM5_-43" value="" style="ellipse;whiteSpace=wrap;html=1;aspect=fixed;fillColor=#000000;" vertex="1" parent="1">
          <mxGeometry x="600" y="500" width="20" height="20" as="geometry" />
        </mxCell>
        <mxCell id="6m3Nq85Ehm2Q4fzWnM5_-44" value="" style="ellipse;whiteSpace=wrap;html=1;aspect=fixed;fillColor=#000000;strokeColor=default;" vertex="1" parent="1">
          <mxGeometry x="636" y="500" width="20" height="20" as="geometry" />
        </mxCell>
        <mxCell id="6m3Nq85Ehm2Q4fzWnM5_-46" value="LIMIT&lt;div&gt;NOT HIT&lt;/div&gt;" style="edgeStyle=orthogonalEdgeStyle;rounded=0;orthogonalLoop=1;jettySize=auto;html=1;exitX=0.25;exitY=1;exitDx=0;exitDy=0;entryX=0.75;entryY=1;entryDx=0;entryDy=0;" edge="1" parent="1" source="6m3Nq85Ehm2Q4fzWnM5_-6" target="6m3Nq85Ehm2Q4fzWnM5_-6">
          <mxGeometry relative="1" as="geometry">
            <Array as="points">
              <mxPoint x="580" y="630" />
              <mxPoint x="640" y="630" />
            </Array>
          </mxGeometry>
        </mxCell>
        <mxCell id="6m3Nq85Ehm2Q4fzWnM5_-50" value="" style="ellipse;whiteSpace=wrap;html=1;aspect=fixed;fillColor=#FFFFFF;" vertex="1" parent="1">
          <mxGeometry x="264" y="710" width="20" height="20" as="geometry" />
        </mxCell>
        <mxCell id="6m3Nq85Ehm2Q4fzWnM5_-51" value="" style="ellipse;whiteSpace=wrap;html=1;aspect=fixed;fillColor=#FFFFFF;" vertex="1" parent="1">
          <mxGeometry x="300" y="710" width="20" height="20" as="geometry" />
        </mxCell>
        <mxCell id="6m3Nq85Ehm2Q4fzWnM5_-52" value="" style="ellipse;whiteSpace=wrap;html=1;aspect=fixed;fillColor=#000000;strokeColor=default;" vertex="1" parent="1">
          <mxGeometry x="336" y="710" width="20" height="20" as="geometry" />
        </mxCell>
      </root>
    </mxGraphModel>
  </diagram>
</mxfile>
